# xmcd CD database file
#
# Track frame offsets:
#	150
#	10297
#	25674
#	35201
#	52837
#	72856
#	93447
#	107921
#	124503
#	145156
#	162511
#	177275
#	195977
#	212452
#	232285
#	252570
#	283931
#	313405
#	335907
#
# Disc length: 4739 seconds
#
# Revision: 1
# Processed by: cddbd v1.5.1PL0 Copyright (c) Steve Scherf et al.
# Submitted via: CDex 1.60beta1
#
DISCID=21128113
DTITLE=All Times - British
DYEAR=1900
DGENRE=
TTITLE0=T-Rex - Metal Guru
TTITLE1=Slade - Cos I Love You
TTITLE2=Beatles - Yesterday
TTITLE3=Tom Jones - I'll Never Fall In Love Again
TTITLE4=David Bowie - Changes
TTITLE5=Status Quo - In The Army Now
TTITLE6=Eric Clapton - Tears In Heaven
TTITLE7=Bonnie Tylor - Total Eclipse Of The Heart
TTITLE8=Pink Floyd - Another Brick in the Wall
TTITLE9=Rolling Stones - Angie
TTITLE10=George Michael - Careless Whisper
TTITLE11=Elton John - Crocodile Rock
TTITLE12=Genesis - Invisible Touch
TTITLE13=ELO - Ticket to the Moon
TTITLE14=Smokie - What Can I Do
TTITLE15=Rod Stewart - I'm Sailing
TTITLE16=Animals - The House of the Rising Sun
TTITLE17=Deep Purple - Smoke on the Water
TTITLE18=Dire Straits - Brothers in Arms
EXTD=
EXTT0=
EXTT1=
EXTT2=
EXTT3=
EXTT4=
EXTT5=
EXTT6=
EXTT7=
EXTT8=
EXTT9=
EXTT10=
EXTT11=
EXTT12=
EXTT13=
EXTT14=
EXTT15=
EXTT16=
EXTT17=
EXTT18=
PLAYORDER=
